<svg width="18" height="18" viewBox="0 0 18 18" fill="none" xmlns="http://www.w3.org/2000/svg">
<path fill-rule="evenodd" clip-rule="evenodd" d="M12.3409 5.59132C12.4983 5.43525 12.7109 5.34742 12.9325 5.3468C13.1542 5.34619 13.3673 5.43285 13.5256 5.58805C13.6839 5.74325 13.7747 5.95452 13.7785 6.17617C13.7823 6.39783 13.6987 6.61207 13.5458 6.77257L9.05475 12.3863C8.97757 12.4695 8.88441 12.5362 8.78085 12.5825C8.67729 12.6288 8.56546 12.6537 8.45204 12.6558C8.33861 12.6579 8.22593 12.6372 8.12073 12.5947C8.01553 12.5523 7.91996 12.489 7.83975 12.4088L4.86413 9.43207C4.78123 9.35483 4.71474 9.26168 4.66862 9.15818C4.62251 9.05468 4.59771 8.94295 4.59571 8.82966C4.59371 8.71637 4.61455 8.60384 4.65699 8.49877C4.69943 8.39371 4.76259 8.29827 4.84271 8.21815C4.92283 8.13803 5.01827 8.07487 5.12333 8.03243C5.22839 7.99 5.34093 7.96916 5.45422 7.97116C5.56751 7.97315 5.67923 7.99795 5.78273 8.04407C5.88623 8.09018 5.97938 8.15667 6.05663 8.23957L8.41238 10.5942L12.3195 5.61607C12.3265 5.60736 12.334 5.59909 12.342 5.59132H12.3409Z" fill="black"/>
</svg>
